# xmcd CD database file
#
# Track frame offsets:
#	150
#	16722
#	32161
#	46235
#	61047
#	68963
#	84154
#	99729
#	115787
#	135193
#	154130
#	168963
#	180207
#
# Disc length: 2650 seconds
#
# Revision: 0
# Processed by: cddbd v1.4PL0 Copyright (c) Steve Scherf et al.
# Submitted via: CDex 1.50Beta7
#
DISCID=8e0a580d
DTITLE=Eric Bibb - Natural Light
DYEAR=2003
DGENRE=Blues
TTITLE0=Too Much Stuff
TTITLE1=Home Lovin' Man
TTITLE2=So Sorry
TTITLE3=Tell Riley
TTITLE4=Guru Man Blues
TTITLE5=Every Time It Rains
TTITLE6=Champagne Habits
TTITLE7=Water Works Fine
TTITLE8=Circles
TTITLE9=Right On Time
TTITLE10=Gratefully Blue
TTITLE11=Lucky Man Rag
TTITLE12=Higher And Higher
EXTD=YEAR: 2003
EXTT0=
EXTT1=
EXTT2=
EXTT3=
EXTT4=
EXTT5=
EXTT6=
EXTT7=
EXTT8=
EXTT9=
EXTT10=
EXTT11=
EXTT12=
PLAYORDER=
